<?xml version="1.0" encoding="UTF-8" standalone="no"?>
<!DOCTYPE svg PUBLIC "-//W3C//DTD SVG 1.1//EN" "http://www.w3.org/Graphics/SVG/1.1/DTD/svg11.dtd">
<svg width="100%" height="100%" viewBox="0 0 22 23" version="1.1" xmlns="http://www.w3.org/2000/svg" xmlns:xlink="http://www.w3.org/1999/xlink" xml:space="preserve" xmlns:serif="http://www.serif.com/" style="fill-rule:evenodd;clip-rule:evenodd;stroke-linejoin:round;stroke-miterlimit:2;">
    <g transform="matrix(1,0,0,1,-48,-420)">
        <g id="Symbols">
            <g id="sidebar-empoyer">
                <g id="_7067486_briefcase_office_bag_icon" serif:id="7067486_briefcase_office_bag_icon">
                </g>
                <g transform="matrix(0.229167,0,0,0.229167,59,431.5)">
                    <g transform="matrix(1,0,0,1,-48,-48)">
                        <clipPath id="_clip1">
                            <rect x="0" y="0" width="96" height="96"/>
                        </clipPath>
                        <g clip-path="url(#_clip1)">
                            <path d="M69.368,51.006C74.897,45.395 78,37.826 78,29.948C78,13.491 64.458,-0.052 48,-0.052C31.542,-0.052 18,13.491 18,29.948C18,37.826 21.103,45.395 26.632,51.006C10.63,57.296 0.037,72.806 -0,90C-0,90.001 -0,90.002 -0,90.003C-0,93.293 2.707,96 5.997,96C5.998,96 5.999,96 6,96L90,96C90.001,96 90.002,96 90.003,96C93.293,96 96,93.293 96,90.003C96,90.002 96,90.001 96,90C95.963,72.806 85.37,57.296 69.368,51.006ZM48,12C57.875,12 66,20.125 66,30C66,39.875 57.875,48 48,48C38.125,48 30,39.875 30,30C30.011,20.13 38.13,12.011 48,12ZM12.598,84C15.461,70.095 27.803,60.02 42,60L54,60C68.197,60.02 80.539,70.095 83.402,84L12.598,84Z" style="fill-rule:nonzero;"/>
                        </g>
                    </g>
                </g>
            </g>
        </g>
    </g>
</svg>
